<?xml version="1.0" encoding="utf-8"?>
<!-- Generator: Adobe Illustrator 16.0.0, SVG Export Plug-In . SVG Version: 6.00 Build 0)  -->
<!DOCTYPE svg PUBLIC "-//W3C//DTD SVG 1.1//EN" "http://www.w3.org/Graphics/SVG/1.1/DTD/svg11.dtd">
<svg version="1.1" id="Layer_1" xmlns="http://www.w3.org/2000/svg" xmlns:xlink="http://www.w3.org/1999/xlink" x="0px" y="0px"
	 width="242.211px" height="120.287px" viewBox="0 0 242.211 120.287" enable-background="new 0 0 242.211 120.287"
	 xml:space="preserve">
<rect x="1.326" y="12.137" fill="#EE851B" width="240.177" height="94.383"/>
<g>
	<path fill="#FFFFFF" d="M62.176,89.241c-0.138,0.781-0.323,1.976-0.92,2.619c-0.598,0.644-1.976,1.104-3.033,1.011
		c-1.057-0.092-28.45-3.677-30.563-4.045c-2.114-0.366-4.228-1.103-5.837-1.93c-1.608-0.827-2.711-1.471-3.814-2.711
		c-1.103-1.241-2.023-2.39-2.758-3.815c-0.735-1.425-1.29-2.806-1.379-4.504c-0.058-1.105-0.275-4.228,0.368-6.25
		s1.746-3.677,2.85-4.826c1.102-1.148,2.619-2.48,4.457-3.171c1.839-0.689,4.045-1.194,6.481-1.288
		c2.435-0.09,24.634,0.874,26.242,0.921c1.609,0.046,5.148-0.23,6.205,0.551c1.056,0.782,1.424,1.793,1.47,2.987
		C61.991,65.985,62.313,88.46,62.176,89.241 M74.754,36.496c-0.308-3.226-0.182-4.503-1.612-7.468
		c-2.188-4.538-4.666-6.182-6.301-7.437c-1.918-1.473-4.627-3.059-7.733-4.003c-3.105-0.944-5.581-1.533-6.408-2.202
		c-0.824-0.668-0.352-3.262-0.352-3.262h-5.032c0,0,0.157,2.712-0.748,3.577c-0.903,0.865-5.936,1.337-8.372,1.769
		c-2.438,0.433-19.301,3.224-21.817,3.655c-2.516,0.433-3.364,1.586-3.561,2.962c-0.197,1.375,0.82,2.418,2.078,2.693
		c1.258,0.275,2.644-0.05,4.456-0.232c1.789-0.181,24.895-2.673,26.942-2.709c3.19-0.057,5.975,0.087,10.062,2.604
		c4.089,2.515,4.656,5.763,5.15,9.542c0.423,3.231,0.392,11.125,0.275,12.383c-0.118,1.258-0.145,3.236-0.943,4.206
		c-0.732,0.889-4.167,0.943-7.351,0.983c-3.185,0.039-9.474,0.236-13.955,0.354c-4.482,0.118-12.225,0.236-15.291,0.472
		c-3.066,0.236-5.444,0.941-8.718,3.124c-4.016,2.677-5.631,5.997-6.849,7.922c-1.219,1.926-2.005,5.424-2.516,5.974
		s-1.572,0.708-2.712,0.669c-1.139-0.039-2.044-0.511-2.044-0.511l-0.274-0.354v4.018c0,0,0.493-0.859,2.221-0.777
		c0.945,0.044,2.213-0.162,3.006,0.676c1.124,1.186,1.298,3.672,2.635,6.502c1.337,2.829,2.634,4.284,5.268,6.996
		c2.633,2.714,9.177,6.085,13.75,7.122c3.308,0.751,35.347,6.322,39.198,7.068c3.853,0.748,6.094,0.237,6.84-0.864
		c0.748-1.1,0.708-2.712,0.708-2.712l0.116-40.804C74.87,58.431,74.896,37.985,74.754,36.496"/>
	<path fill="#FFFFFF" d="M90.691,24.385v5.95h2.974c0.834,0,1.538-0.288,2.113-0.862c0.575-0.575,0.863-1.279,0.863-2.113
		s-0.288-1.538-0.863-2.112c-0.575-0.576-1.279-0.863-2.113-0.863H90.691z M95.447,31.507l2.591,5.183
		c0.061,0.121,0.09,0.234,0.09,0.339c0,0.195-0.075,0.368-0.224,0.517c-0.151,0.152-0.324,0.227-0.519,0.227
		c-0.309,0-0.534-0.139-0.676-0.417l-2.772-5.545c-0.068,0.007-0.158,0.011-0.271,0.011h-2.974v5.207
		c0,0.496-0.248,0.744-0.744,0.744c-0.496,0-0.744-0.248-0.744-0.744V23.642c0-0.496,0.248-0.744,0.744-0.744h3.718
		c1.24,0,2.293,0.433,3.162,1.301c0.867,0.868,1.3,1.922,1.3,3.161C98.127,29.411,97.234,30.793,95.447,31.507"/>
	<path fill="#FFFFFF" d="M113.36,35.203c-0.173-0.166-0.35-0.331-0.53-0.496c-0.188-0.211-0.282-0.421-0.282-0.631
		c0-0.496,0.248-0.744,0.744-0.744c0.21,0,0.443,0.132,0.699,0.394c0.022-0.135,0.034-0.275,0.034-0.417v-5.95
		c0-0.833-0.288-1.538-0.863-2.112c-0.575-0.575-1.279-0.862-2.113-0.862c-0.833,0-1.538,0.287-2.113,0.862
		c-0.574,0.574-0.862,1.279-0.862,2.112v5.95c0,0.834,0.288,1.539,0.862,2.114c0.575,0.574,1.28,0.861,2.113,0.861
		C111.988,36.284,112.759,35.924,113.36,35.203 M114.396,36.251c-0.871,1.014-1.987,1.521-3.347,1.521
		c-1.232,0-2.283-0.436-3.155-1.307c-0.872-0.872-1.307-1.923-1.307-3.156v-5.95c0-1.232,0.435-2.282,1.307-3.154
		s1.923-1.308,3.155-1.308c1.24,0,2.294,0.434,3.162,1.302c0.867,0.868,1.301,1.921,1.301,3.16v5.95
		c0,0.541-0.101,1.086-0.304,1.635l1.543,1.543c0.165,0.166,0.248,0.349,0.248,0.553c0,0.488-0.248,0.732-0.743,0.732
		c-0.226,0-0.414-0.075-0.564-0.226L114.396,36.251z"/>
	<path fill="#FFFFFF" d="M134.931,23.641v9.669c0,1.232-0.437,2.283-1.307,3.155c-0.872,0.87-1.924,1.307-3.156,1.307
		c-1.231,0-2.283-0.437-3.154-1.307c-0.872-0.872-1.31-1.923-1.31-3.155v-9.669c0-0.496,0.25-0.744,0.745-0.744
		c0.496,0,0.744,0.248,0.744,0.744v9.669c0,0.833,0.287,1.538,0.862,2.112c0.574,0.575,1.277,0.862,2.112,0.862
		c0.834,0,1.538-0.287,2.112-0.862c0.576-0.574,0.863-1.279,0.863-2.112v-9.669c0-0.496,0.248-0.744,0.743-0.744
		S134.931,23.146,134.931,23.641"/>
	<path fill="#FFFFFF" d="M149.128,37.772c-0.496,0-0.744-0.248-0.744-0.744V23.642c0-0.496,0.248-0.744,0.744-0.744
		c0.495,0,0.743,0.248,0.743,0.744v13.387C149.871,37.524,149.623,37.772,149.128,37.772"/>
	<path fill="#FFFFFF" d="M89.204,52.024c0-0.496,0.248-0.744,0.744-0.744h7.437c0.495,0,0.744,0.248,0.744,0.744
		s-0.249,0.744-0.744,0.744H94.41v12.643c0,0.496-0.248,0.744-0.744,0.744s-0.744-0.248-0.744-0.744V52.769h-2.974
		C89.452,52.769,89.204,52.521,89.204,52.024"/>
	<path fill="#FFFFFF" d="M108.074,65.412V52.025c0-0.496,0.248-0.744,0.744-0.744h5.95c0.496,0,0.744,0.248,0.744,0.744
		c0,0.495-0.248,0.743-0.744,0.743h-5.206v4.463h3.719c0.496,0,0.743,0.248,0.743,0.744c0,0.495-0.247,0.743-0.743,0.743h-3.719
		v5.95h5.206c0.496,0,0.744,0.248,0.744,0.744s-0.248,0.744-0.744,0.744h-5.95C108.322,66.156,108.074,65.908,108.074,65.412"/>
	<path fill="#FFFFFF" d="M133.442,51.281c0.496,0,0.744,0.248,0.744,0.744s-0.248,0.743-0.744,0.743h-2.975
		c-0.624,0-1.151,0.219-1.584,0.655c-0.433,0.435-0.647,0.961-0.647,1.577v7.437c0,0.616,0.219,1.143,0.653,1.577
		c0.435,0.438,0.961,0.654,1.578,0.654h2.975c0.496,0,0.744,0.248,0.744,0.744s-0.248,0.744-0.744,0.744h-2.975
		c-1.029,0-1.907-0.363-2.631-1.088c-0.727-0.726-1.087-1.602-1.087-2.632V55c0-1.03,0.36-1.907,1.087-2.631
		c0.724-0.725,1.602-1.088,2.631-1.088H133.442z"/>
	<path fill="#F6AF33" d="M152.103,51.281c0.496,0,0.743,0.248,0.743,0.744s-0.247,0.743-0.743,0.743h-2.976
		c-0.622,0-1.15,0.219-1.583,0.655c-0.433,0.435-0.647,0.961-0.647,1.577v7.437c0,0.616,0.218,1.143,0.654,1.577
		c0.436,0.438,0.961,0.654,1.576,0.654h2.976c0.496,0,0.743,0.248,0.743,0.744s-0.247,0.744-0.743,0.744h-2.976
		c-1.028,0-1.904-0.363-2.631-1.088c-0.724-0.726-1.087-1.602-1.087-2.632V55c0-1.03,0.363-1.907,1.087-2.631
		c0.727-0.725,1.603-1.088,2.631-1.088H152.103z"/>
	<path fill="#FFFFFF" d="M89.204,81.47c0-0.496,0.248-0.744,0.744-0.744h7.437c0.495,0,0.744,0.248,0.744,0.744
		c0,0.495-0.249,0.743-0.744,0.743H94.41v12.644c0,0.496-0.248,0.744-0.744,0.744s-0.744-0.248-0.744-0.744V82.213h-2.974
		C89.452,82.213,89.204,81.965,89.204,81.47"/>
	<path fill="#FFFFFF" d="M116.256,81.47v9.668c0,1.232-0.437,2.283-1.307,3.155c-0.872,0.871-1.924,1.308-3.156,1.308
		c-1.232,0-2.283-0.437-3.155-1.308c-0.872-0.872-1.307-1.923-1.307-3.155V81.47c0-0.496,0.248-0.744,0.743-0.744
		c0.496,0,0.744,0.248,0.744,0.744v9.668c0,0.834,0.288,1.539,0.862,2.112c0.575,0.575,1.279,0.863,2.113,0.863
		s1.538-0.288,2.113-0.863c0.575-0.573,0.863-1.278,0.863-2.112V81.47c0-0.496,0.247-0.744,0.743-0.744
		S116.256,80.974,116.256,81.47"/>
	<path fill="#FFFFFF" d="M127.493,82.213v5.95h2.975c0.833,0,1.538-0.287,2.113-0.862s0.861-1.278,0.861-2.113
		c0-0.834-0.286-1.538-0.861-2.111c-0.575-0.576-1.28-0.863-2.113-0.863H127.493z M132.248,89.335l2.593,5.183
		c0.059,0.121,0.089,0.234,0.089,0.339c0,0.195-0.075,0.368-0.225,0.519c-0.15,0.15-0.323,0.226-0.52,0.226
		c-0.307,0-0.533-0.139-0.676-0.417l-2.771-5.545c-0.068,0.008-0.157,0.012-0.271,0.012h-2.975v5.206
		c0,0.496-0.249,0.744-0.743,0.744c-0.496,0-0.745-0.248-0.745-0.744V81.47c0-0.496,0.249-0.744,0.745-0.744h3.718
		c1.239,0,2.293,0.435,3.161,1.301c0.867,0.868,1.301,1.923,1.301,3.161C134.93,87.239,134.036,88.621,132.248,89.335"/>
	<path fill="#FFFFFF" d="M149.128,83.836l-2.187,6.558h4.372L149.128,83.836z M154.335,94.856c0,0.496-0.249,0.744-0.745,0.744
		c-0.36,0-0.598-0.17-0.71-0.508l-1.07-3.211h-5.364l-1.069,3.211c-0.113,0.338-0.351,0.508-0.711,0.508
		c-0.495,0-0.743-0.248-0.743-0.744c0-0.091,0.011-0.169,0.033-0.236l4.429-13.297c0.136-0.398,0.384-0.598,0.744-0.598
		c0.359,0,0.604,0.191,0.732,0.574l4.439,13.32C154.322,94.688,154.335,94.766,154.335,94.856"/>
	<path fill="#FFFFFF" d="M1.326,12.137h78.968v94.383H1.326V12.137z M81.622,12.137h78.969v94.383H81.622V12.137z M161.916,12.137
		h78.969v94.383h-78.969V12.137z M161.916,10.811h-1.325H81.622h-1.326H0v97.036h80.295h1.326h78.969h1.325h80.294V10.811H161.916z"
		/>
	<polygon fill="#FFFFFF" points="229.763,60.811 229.763,35.207 214.311,35.207 217.165,44.605 217.165,60.811 	"/>
	<rect x="232.586" y="24.396" fill="#FFFFFF" width="8.313" height="10.321"/>
	<rect x="217.165" y="62.876" fill="#FFFFFF" width="12.598" height="10.534"/>
	<polygon fill="#FFFFFF" points="231.278,51.061 232.634,51.061 232.634,61.352 235.093,61.352 235.093,72.093 240.899,72.093 
		240.899,40.345 231.278,40.345 	"/>
	<polygon fill="#FFFFFF" points="225.082,81.897 215.082,81.897 215.082,65.396 203.101,65.396 203.101,67.577 190.789,67.577 
		190.789,76.518 203.496,76.518 203.496,79.46 189.182,79.46 189.182,87.5 187.172,87.5 187.172,78.389 175.114,78.389 
		175.114,85.489 170.365,85.489 170.365,106.552 185.178,106.552 185.178,99.787 174.541,99.787 171.899,97.145 183.95,97.145 
		183.95,87.429 186.632,90.111 186.632,98.081 198.783,98.081 198.783,88.876 212.438,88.876 212.438,91.737 203.642,91.737 
		203.642,101.433 201.899,101.433 201.899,106.552 214.037,106.552 214.037,92.456 225.082,92.456 	"/>
	<polygon fill="#FFFFFF" points="230.039,83.081 225.622,83.081 229.073,86.532 229.073,99.689 216.735,99.689 216.735,106.552 
		240.898,106.552 240.898,77.996 230.039,77.996 	"/>
	<rect x="161.914" y="75.041" fill="#FFFFFF" width="3.688" height="10.541"/>
	<rect x="161.914" y="86.428" fill="#FFFFFF" width="6.368" height="10.432"/>
	<rect x="161.914" y="98.618" fill="#FFFFFF" width="6.503" height="6.503"/>
	<polygon fill="#FFFFFF" points="172.644,40.271 175.518,43.145 175.518,51.329 187.619,51.329 187.619,42.127 201.755,42.127 
		201.755,45.367 192.121,45.367 192.121,54.676 190.691,54.676 190.691,64.86 203.101,64.86 203.101,45.837 213.83,45.837 
		213.83,35.229 204.051,35.229 204.051,30.167 216.105,30.167 216.105,19.848 203.916,19.848 203.916,24.405 192.53,24.405 
		192.53,32.841 178.354,32.841 178.354,41.005 176.054,41.005 176.054,31.637 164.13,31.637 164.13,40.076 161.914,40.076 
		161.914,50.525 172.644,50.525 	"/>
	<polygon fill="#FFFFFF" points="181.336,71.692 181.336,58.966 186.394,64.025 188.242,64.025 188.242,53.473 175.92,53.473 
		175.92,61.241 174.446,61.241 174.446,52.937 161.914,52.937 161.914,72.765 168.212,72.765 168.212,63.405 169.354,64.55 
		169.354,71.692 	"/>
	<polygon fill="#9A9999" points="0.712,4.714 0.712,0.099 4.034,0.099 4.034,0.938 1.583,0.938 1.583,2.198 3.902,2.198 
		3.902,3.004 1.583,3.004 1.583,4.714 	"/>
	<path fill="#848484" d="M27.188,1.062L26.33,3.031h1.717L27.188,1.062z M28.396,3.843h-2.417l-0.396,0.872H24.64l2.073-4.623h0.951
		l2.073,4.623h-0.951L28.396,3.843z"/>
	<path fill="#848484" d="M54.403,4.133c-0.475,0.469-1.09,0.687-1.756,0.687c-1.717,0-2.444-1.182-2.45-2.384
		C50.19,1.228,50.977,0,52.647,0c0.627,0,1.222,0.238,1.697,0.707l-0.581,0.561c-0.304-0.297-0.714-0.436-1.116-0.436
		c-1.116,0-1.598,0.832-1.592,1.605c0.007,0.766,0.449,1.565,1.592,1.565c0.402,0,0.858-0.165,1.162-0.469L54.403,4.133z"/>
	<path fill="#848484" d="M79.36,0.099v2.648c0,1.367-0.838,2.067-2.001,2.067c-1.109,0-2.054-0.673-2.054-2.067V0.099h0.866v2.648
		c0,0.832,0.475,1.274,1.195,1.274c0.72,0,1.129-0.482,1.129-1.274V0.099H79.36z"/>
	<polygon fill="#848484" points="101.558,0.092 101.558,3.909 103.935,3.909 103.935,4.715 100.686,4.715 100.686,0.092 	"/>
	<polygon fill="#848484" points="125.537,0.884 124.071,0.884 124.071,0.092 127.875,0.092 127.875,0.884 126.408,0.884 
		126.408,4.714 125.537,4.714 	"/>
	<path fill="#848484" d="M150.956,1.062l-0.858,1.969h1.717L150.956,1.062z M152.165,3.843h-2.417l-0.396,0.872h-0.945l2.074-4.623
		h0.951l2.073,4.623h-0.951L152.165,3.843z"/>
	<path fill="#848484" d="M175.339,3.875h0.95c1.051,0,1.467-0.766,1.447-1.519c-0.021-0.72-0.442-1.439-1.447-1.439h-0.95V3.875z
		 M178.601,2.364c0.021,1.169-0.692,2.351-2.312,2.351h-1.815V0.092h1.815C177.875,0.092,178.581,1.222,178.601,2.364"/>
	<path fill="#848484" d="M213.012,3.875h0.95c1.051,0,1.467-0.766,1.447-1.519c-0.021-0.72-0.442-1.439-1.447-1.439h-0.95V3.875z
		 M216.274,2.364c0.02,1.169-0.693,2.351-2.313,2.351h-1.814V0.092h1.814C215.548,0.092,216.254,1.222,216.274,2.364"/>
	<polygon fill="#848484" points="240.775,4.714 237.315,4.714 237.315,0.091 240.775,0.091 240.775,0.938 238.181,0.938 238.181,2 
		240.683,2 240.683,2.813 238.181,2.813 238.181,3.856 240.775,3.856 	"/>
	<path fill="#848484" d="M2.795,116.5l-0.862,1.978h1.725L2.795,116.5z M4.009,119.292H1.583l-0.398,0.875H0.235l2.083-4.642h0.955
		l2.082,4.642H4.4L4.009,119.292z"/>
	<path fill="#848484" d="M11.384,116.341v1.486h1.333c0.557,0,0.795-0.371,0.795-0.743c0-0.371-0.245-0.743-0.795-0.743H11.384z
		 M14.62,120.168h-1.041l-1.353-1.552h-0.842v1.552h-0.876v-4.649c0.737,0,1.472,0.007,2.209,0.007
		c1.094,0.008,1.671,0.736,1.671,1.538c0,0.638-0.292,1.28-1.174,1.459l1.406,1.585V120.168z"/>
	<polygon fill="#848484" points="21.146,116.321 19.674,116.321 19.674,115.526 23.494,115.526 23.494,116.321 22.021,116.321 
		22.021,120.168 21.146,120.168 	"/>
	<polygon fill="#848484" points="32.247,120.168 28.772,120.168 28.772,115.525 32.247,115.525 32.247,116.375 29.641,116.375 
		29.641,117.442 32.154,117.442 32.154,118.258 29.641,118.258 29.641,119.306 32.247,119.306 	"/>
	<path fill="#848484" d="M40.689,116.646c-0.16-0.266-0.597-0.518-1.101-0.518c-0.65,0-0.962,0.272-0.962,0.617
		c0,0.404,0.478,0.518,1.035,0.583c0.968,0.12,1.87,0.372,1.87,1.479c0,1.034-0.915,1.479-1.95,1.479
		c-0.948,0-1.677-0.291-2.023-1.141l0.73-0.378c0.206,0.511,0.743,0.735,1.306,0.735c0.551,0,1.068-0.191,1.068-0.695
		c0-0.438-0.457-0.617-1.074-0.684c-0.949-0.112-1.824-0.364-1.824-1.406c0-0.954,0.942-1.346,1.797-1.353
		c0.723,0,1.473,0.205,1.824,0.922L40.689,116.646z"/>
	<rect x="46.864" y="117.634" fill="#848484" width="2.448" height="0.743"/>
	<path fill="#848484" d="M55.564,119.326h0.955c1.054,0,1.472-0.77,1.452-1.526c-0.02-0.723-0.444-1.445-1.452-1.445h-0.955V119.326
		z M58.84,117.807c0.02,1.174-0.696,2.361-2.321,2.361h-1.824v-4.643h1.824C58.11,115.525,58.82,116.66,58.84,117.807"/>
	<rect x="64.258" y="115.525" fill="#848484" width="0.869" height="4.642"/>
	<path fill="#848484" d="M73.702,116.646c-0.159-0.266-0.597-0.518-1.101-0.518c-0.65,0-0.961,0.272-0.961,0.617
		c0,0.404,0.477,0.518,1.034,0.583c0.968,0.12,1.87,0.372,1.87,1.479c0,1.034-0.915,1.479-1.95,1.479
		c-0.948,0-1.677-0.291-2.022-1.141l0.73-0.378c0.205,0.511,0.742,0.735,1.305,0.735c0.551,0,1.069-0.191,1.069-0.695
		c0-0.438-0.458-0.617-1.075-0.684c-0.948-0.112-1.824-0.364-1.824-1.406c0-0.954,0.942-1.346,1.798-1.353
		c0.722,0,1.472,0.205,1.823,0.922L73.702,116.646z"/>
	<polygon fill="#848484" points="83.437,120.168 79.962,120.168 79.962,115.525 83.437,115.525 83.437,116.375 80.831,116.375 
		80.831,117.442 83.344,117.442 83.344,118.258 80.831,118.258 80.831,119.306 83.437,119.306 	"/>
	<path fill="#848484" d="M89.97,114.789c0.158-0.392,0.417-0.67,0.855-0.57c0.311,0.073,0.617,0.418,0.822,0.007l0.53,0.252
		c-0.192,0.512-0.523,0.663-0.835,0.583c-0.325-0.092-0.61-0.483-0.869,0L89.97,114.789z M92.065,115.519h0.875v4.649h-0.544v0.006
		l-2.44-3.136v3.13H89.08v-4.642h0.71l2.275,2.878V115.519z"/>
	<path fill="#848484" d="M99.406,117.894c0.02,0.762,0.432,1.578,1.525,1.578c1.094,0,1.506-0.822,1.519-1.585
		c0.013-0.783-0.425-1.658-1.519-1.658C99.838,116.229,99.386,117.11,99.406,117.894 M103.312,117.873
		c-0.013,1.2-0.749,2.4-2.381,2.4c-1.631,0-2.387-1.173-2.387-2.393c0-1.222,0.783-2.447,2.387-2.447
		C102.53,115.434,103.325,116.659,103.312,117.873"/>
	<rect x="108.624" y="117.634" fill="#848484" width="2.447" height="0.743"/>
	<path fill="#848484" d="M120.588,115.532v2.66c0,1.372-0.843,2.075-2.01,2.075c-1.114,0-2.062-0.677-2.062-2.075v-2.66h0.869v2.66
		c0,0.835,0.477,1.28,1.2,1.28s1.134-0.485,1.134-1.28v-2.66H120.588z"/>
	<path fill="#848484" d="M127.081,116.341v1.486h1.333c0.557,0,0.795-0.371,0.795-0.743c0-0.371-0.245-0.743-0.795-0.743H127.081z
		 M130.316,120.168h-1.04l-1.354-1.552h-0.842v1.552h-0.876v-4.649c0.736,0,1.472,0.007,2.209,0.007
		c1.094,0.008,1.671,0.736,1.671,1.538c0,0.638-0.292,1.28-1.174,1.459l1.405,1.585V120.168z"/>
	<path fill="#848484" d="M136.271,119.352h1.34c0.358,0,0.869-0.119,0.869-0.557c0-0.418-0.511-0.636-0.869-0.636h-1.34V119.352z
		 M136.271,117.389h1.34c0.55,0,0.73-0.231,0.73-0.497c0-0.212-0.173-0.569-0.73-0.569h-1.34V117.389z M139.21,116.872
		c0,0.357-0.173,0.703-0.604,0.895c0.545,0.166,0.744,0.743,0.744,1.035c0,1.035-0.777,1.366-1.738,1.366h-2.202v-4.643h2.202
		C138.526,115.525,139.21,115.937,139.21,116.872"/>
	<path fill="#848484" d="M146.809,116.5l-0.86,1.978h1.724L146.809,116.5z M148.023,119.292h-2.428l-0.397,0.875h-0.949l2.083-4.642
		h0.955l2.082,4.642h-0.955L148.023,119.292z"/>
	<polygon fill="#848484" points="157.58,115.519 158.455,115.519 158.455,120.168 157.91,120.168 157.91,120.174 155.471,117.038 
		155.471,120.168 154.595,120.168 154.595,115.526 155.305,115.526 157.58,118.404 	"/>
	<rect x="164.019" y="115.525" fill="#848484" width="0.869" height="4.642"/>
	<path fill="#848484" d="M173.469,116.646c-0.159-0.266-0.597-0.518-1.101-0.518c-0.65,0-0.961,0.272-0.961,0.617
		c0,0.404,0.478,0.518,1.033,0.583c0.969,0.12,1.87,0.372,1.87,1.479c0,1.034-0.915,1.479-1.949,1.479
		c-0.948,0-1.678-0.291-2.022-1.141l0.73-0.378c0.204,0.511,0.741,0.735,1.306,0.735c0.55,0,1.068-0.191,1.068-0.695
		c0-0.438-0.458-0.617-1.075-0.684c-0.948-0.112-1.824-0.364-1.824-1.406c0-0.954,0.943-1.346,1.798-1.353
		c0.722,0,1.472,0.205,1.823,0.922L173.469,116.646z"/>
	<polygon fill="#848484" points="183.795,116.806 182.283,118.821 182.109,118.821 180.632,116.799 180.632,120.175 
		179.756,120.175 179.756,115.532 180.765,115.532 182.217,117.528 183.669,115.532 184.67,115.532 184.67,120.175 183.795,120.175 
			"/>
	<path fill="#848484" d="M190.903,117.894c0.021,0.762,0.432,1.578,1.525,1.578c1.095,0,1.506-0.822,1.519-1.585
		c0.014-0.783-0.424-1.658-1.519-1.658C191.335,116.229,190.884,117.11,190.903,117.894 M194.81,117.873
		c-0.013,1.2-0.75,2.4-2.381,2.4s-2.389-1.173-2.389-2.393c0-1.222,0.784-2.447,2.389-2.447
		C194.027,115.434,194.822,116.659,194.81,117.873"/>
	<rect x="200.121" y="117.634" fill="#848484" width="2.447" height="0.743"/>
	<path fill="#848484" d="M212.085,115.532v2.66c0,1.372-0.842,2.075-2.009,2.075c-1.115,0-2.063-0.677-2.063-2.075v-2.66h0.868v2.66
		c0,0.835,0.479,1.28,1.2,1.28c0.724,0,1.134-0.485,1.134-1.28v-2.66H212.085z"/>
	<polygon fill="#848484" points="221.741,116.806 220.229,118.821 220.056,118.821 218.578,116.799 218.578,120.175 
		217.702,120.175 217.702,115.532 218.711,115.532 220.163,117.528 221.615,115.532 222.616,115.532 222.616,120.175 
		221.741,120.175 	"/>
	<path fill="#848484" d="M231.059,116.646c-0.159-0.266-0.597-0.518-1.101-0.518c-0.65,0-0.961,0.272-0.961,0.617
		c0,0.404,0.477,0.518,1.033,0.583c0.969,0.12,1.87,0.372,1.87,1.479c0,1.034-0.915,1.479-1.949,1.479
		c-0.948,0-1.678-0.291-2.022-1.141l0.729-0.378c0.206,0.511,0.743,0.735,1.307,0.735c0.551,0,1.068-0.191,1.068-0.695
		c0-0.438-0.458-0.617-1.074-0.684c-0.948-0.112-1.824-0.364-1.824-1.406c0-0.954,0.942-1.346,1.797-1.353
		c0.723,0,1.473,0.205,1.824,0.922L231.059,116.646z"/>
	<path fill="#848484" d="M239.414,116.5l-0.861,1.978h1.725L239.414,116.5z M240.628,119.292H238.2l-0.397,0.875h-0.947l2.081-4.642
		h0.955l2.082,4.642h-0.955L240.628,119.292z"/>
	<polygon fill="#EE851B" points="241.503,106.52 161.916,106.52 161.916,105.294 240.265,105.294 240.265,13.363 161.916,13.363 
		161.916,12.137 241.503,12.137 	"/>
</g>
</svg>
